<svg width="56" height="56" viewBox="0 0 56 56" fill="none" xmlns="http://www.w3.org/2000/svg">
<g clip-path="url(#clip0)">
<path d="M27.4466 56C42.6049 56 54.8931 43.7118 54.8931 28.5534C54.8931 13.3951 42.6049 1.10688 27.4466 1.10688C12.2882 1.10688 0 13.3951 0 28.5534C0 43.7118 12.2882 56 27.4466 56Z" fill="#FFE17D"/>
<path d="M31.4309 52.0158C16.2725 52.0158 3.9842 39.7275 3.9842 24.5691C3.9842 18.0048 6.29158 11.9812 10.1357 7.25814C3.95227 12.2908 0 19.9593 0 28.5533C0 43.7117 12.2883 56 27.4467 56C36.0408 56 43.7094 52.0476 48.742 45.8642C44.0189 49.7083 37.9952 52.0158 31.4309 52.0158Z" fill="#FFD164"/>
<path d="M17.7076 29.6601C16.0242 29.6601 14.4195 28.8638 13.3032 27.4761C12.9202 26.9997 12.9963 26.3029 13.4726 25.9198C13.9482 25.5359 14.6468 25.6129 15.0289 26.0893C15.7319 26.9643 16.6837 27.4467 17.7075 27.4467C18.7312 27.4467 19.6831 26.9643 20.3861 26.0893C20.7691 25.6128 21.4661 25.5359 21.9424 25.9198C22.4188 26.3029 22.4948 26.9998 22.1118 27.4761C20.9958 28.8638 19.3911 29.6601 17.7076 29.6601Z" fill="#AA7346"/>
<path d="M37.1893 29.6601C35.5059 29.6601 33.9012 28.8638 32.7849 27.4761C32.4018 26.9997 32.478 26.3029 32.9543 25.9198C33.4307 25.5359 34.1276 25.6129 34.5106 26.0893C35.2136 26.9643 36.1654 27.4467 37.1892 27.4467C38.2129 27.4467 39.1648 26.9643 39.8678 26.0893C40.2508 25.6128 40.9478 25.5359 41.4241 25.9198C41.9005 26.3029 41.9765 26.9998 41.5935 27.4761C40.4774 28.8638 38.8727 29.6601 37.1893 29.6601Z" fill="#AA7346"/>
<path d="M29.2171 37.4071C27.7501 37.4071 26.5609 38.5964 26.5609 40.0633V40.9487C26.5609 42.4156 27.7501 43.6049 29.2171 43.6049C30.684 43.6049 31.8733 42.4156 31.8733 40.9487V40.0633C31.8733 38.5962 30.684 37.4071 29.2171 37.4071Z" fill="#9C6846"/>
<path d="M37.1859 13.2806H35.7127L38.1068 9.68898C38.3333 9.34915 38.3541 8.91252 38.1621 8.5529C37.9693 8.19316 37.594 7.9684 37.1859 7.9684H33.6445C33.0332 7.9684 32.5377 8.46387 32.5377 9.07516C32.5377 9.68646 33.0332 10.1819 33.6445 10.1819H35.1178L32.7237 13.7736C32.4971 14.1134 32.4764 14.55 32.6683 14.9097C32.8611 15.2694 33.2364 15.4942 33.6445 15.4942H37.1859C37.7972 15.4942 38.2927 14.9987 38.2927 14.3874C38.2927 13.7761 37.7972 13.2806 37.1859 13.2806Z" fill="#8CB4EB"/>
<path d="M54.8935 5.31223H53.4202L55.8143 1.72058C56.0408 1.38075 56.0616 0.944125 55.8696 0.5845C55.6768 0.224766 55.3016 0 54.8935 0H51.352C50.7407 0 50.2452 0.495469 50.2452 1.10677C50.2452 1.71806 50.7407 2.21353 51.352 2.21353H52.8253L50.4312 5.80519C50.2047 6.14502 50.1839 6.58164 50.3758 6.94127C50.5687 7.301 50.9439 7.52577 51.352 7.52577H54.8935C55.5048 7.52577 56.0002 7.0303 56.0002 6.419C56.0002 5.8077 55.5048 5.31223 54.8935 5.31223Z" fill="#8CB4EB"/>
<path d="M48.9909 10.6245H42.7959L48.7316 1.72058C48.9581 1.38075 48.9789 0.944125 48.7869 0.5845C48.5941 0.224766 48.2188 0 47.8108 0H40.7277C40.1164 0 39.621 0.495469 39.621 1.10677C39.621 1.71806 40.1164 2.21353 40.7277 2.21353H45.7426L39.8069 11.1174C39.5804 11.4572 39.5596 11.8939 39.7516 12.2535C39.9444 12.6132 40.3197 12.838 40.7277 12.838H48.9909C49.6022 12.838 50.0977 12.3425 50.0977 11.7312C50.0977 11.1199 49.6022 10.6245 48.9909 10.6245Z" fill="#8CB4EB"/>
<path d="M29.2171 37.4071C27.7501 37.4071 26.5609 38.5964 26.5609 40.0633V40.9487C26.5609 41.2608 26.6247 41.5558 26.7236 41.8341C27.0894 40.8048 28.0622 40.0633 29.217 40.0633C30.3718 40.0633 31.3445 40.8048 31.7104 41.8341C31.8093 41.5559 31.873 41.2608 31.873 40.9487V40.0633C31.8733 38.5962 30.684 37.4071 29.2171 37.4071Z" fill="#7D5046"/>
</g>
<defs>
<clipPath id="clip0">
<rect width="56" height="56" fill="white"/>
</clipPath>
</defs>
</svg>
