<svg width="56" height="56" viewBox="0 0 56 56" fill="none" xmlns="http://www.w3.org/2000/svg">
<g clip-path="url(#clip0)">
<path d="M28.0009 55.9999C43.4649 55.9999 56.0009 43.4639 56.0009 27.9999C56.0009 12.536 43.4649 0 28.0009 0C12.537 0 0.000976562 12.536 0.000976562 27.9999C0.000976562 43.4639 12.537 55.9999 28.0009 55.9999Z" fill="#FFE17D"/>
<path d="M32.0654 51.9354C16.6014 51.9354 4.06545 39.3994 4.06545 23.9355C4.06545 17.2388 6.41931 11.0937 10.3409 6.27548C4.03286 11.4095 0.000976562 19.2327 0.000976562 27.9999C0.000976562 43.4639 12.537 55.9999 28.0009 55.9999C36.7683 55.9999 44.5914 51.9679 49.7256 45.6598C44.9073 49.5814 38.7622 51.9354 32.0654 51.9354Z" fill="#FFD164"/>
<path d="M19.8713 55.9999C20.8648 55.9999 21.6777 55.187 21.6777 54.1934C21.6777 53.1999 20.8648 52.387 19.8713 52.387H20.7745C21.768 52.387 22.5809 51.5741 22.5809 50.5806C22.5809 49.587 21.768 48.7741 20.7745 48.7741H21.6777C22.6713 48.7741 23.4841 47.9613 23.4841 46.9677C23.4841 45.9742 22.6713 45.1613 21.6777 45.1613H31.6132C32.6109 45.1613 33.4196 44.3525 33.4196 43.3548C33.4196 42.3571 32.6108 41.5484 31.6132 41.5484H15.3552C13.8587 41.5484 12.6455 40.3352 12.6455 38.8388V33.4195C12.6455 32.4217 11.8367 31.613 10.8391 31.613C9.84137 31.613 9.03266 32.4218 9.03266 33.4195V37.841C9.03266 39.0716 8.61386 40.2656 7.84506 41.2265L7.0031 42.2789C5.97815 43.5601 5.41968 45.1521 5.41968 46.7928V50.5807C5.41968 53.5737 7.84605 56 10.839 56H19.8713V55.9999Z" fill="#FFD164"/>
<path d="M21.6777 54.1935H19.8713H10.839C8.84683 54.1935 7.22611 52.5727 7.22611 50.5806V46.7926C7.22611 45.5667 7.64786 44.3644 8.41359 43.4072L9.25567 42.3548C10.2767 41.0785 10.839 39.4754 10.839 37.8409V31.6129C9.84137 31.6129 9.03255 32.4218 9.03255 33.4194V37.8409C9.03255 39.0715 8.61375 40.2655 7.84506 41.2264L7.0031 42.2788C5.97815 43.56 5.41968 45.152 5.41968 46.7927V50.5807C5.41968 53.5737 7.84594 56 10.839 56H19.8713C20.8647 55.9999 21.6777 55.187 21.6777 54.1935Z" fill="#FFC350"/>
<path d="M33.4195 43.3547H20.7743C20.2755 43.3547 19.8711 43.7591 19.8711 44.258C19.8711 44.7567 20.2755 45.1612 20.7743 45.1612H21.6775H31.613C32.6108 45.1612 33.4195 44.3525 33.4195 43.3547Z" fill="#FFC350"/>
<path d="M18.9678 47.8708C18.9678 48.3696 19.3721 48.774 19.871 48.774H20.7742H21.6774C22.671 48.774 23.4839 47.9612 23.4839 46.9676H19.871C19.3721 46.9676 18.9678 47.372 18.9678 47.8708Z" fill="#FFC350"/>
<path d="M18.0649 51.4838C18.0649 51.9826 18.4693 52.387 18.9682 52.387H19.8714H20.7746C21.7682 52.387 22.581 51.5741 22.581 50.5806H18.9682C18.4693 50.5806 18.0649 50.9849 18.0649 51.4838Z" fill="#FFC350"/>
<path d="M32.5143 37.258C32.3441 37.258 32.1712 37.2191 32.008 37.1371C31.9462 37.1063 25.7533 34.0279 18.9077 33.8708C18.2841 33.8567 17.7901 33.3398 17.8042 32.7163C17.8184 32.0931 18.3361 31.5767 18.9588 31.6137C26.3293 31.7826 32.755 34.9849 33.025 35.1212C33.5816 35.4018 33.8047 36.0804 33.5243 36.637C33.3258 37.0309 32.9279 37.258 32.5143 37.258Z" fill="#AA7346"/>
<path d="M20.7733 14.6774C20.5272 14.6774 20.2794 14.5971 20.0721 14.4322C19.9019 14.2986 16.0182 11.3181 11.3434 13.6551C10.7876 13.9342 10.1068 13.7072 9.82885 13.1501C9.55017 12.5922 9.77592 11.9144 10.3343 11.6352C16.3305 8.63448 21.2726 12.5004 21.4799 12.6667C21.9668 13.0561 22.0453 13.7666 21.6563 14.2535C21.4332 14.5323 21.1051 14.6774 20.7733 14.6774Z" fill="#AA7346"/>
<path d="M33.4186 16.4843C32.8911 16.4843 32.4201 16.113 32.3125 15.5763C32.1899 14.965 32.5868 14.3701 33.1981 14.2479L42.2304 12.4415C42.8452 12.3193 43.4361 12.7154 43.5588 13.3271C43.6814 13.9384 43.2844 14.5333 42.6731 14.6555L33.6409 16.4619C33.5659 16.4768 33.4919 16.4843 33.4186 16.4843Z" fill="#AA7346"/>
<path d="M16.6258 22.7519C15.3881 22.5994 14.5084 21.4722 14.661 20.2346L14.882 18.4417C15.0346 17.204 16.1617 16.3243 17.3994 16.4769C18.6371 16.6295 19.5168 17.7566 19.3642 18.9942L19.1432 20.7871C18.9906 22.0248 17.8635 22.9045 16.6258 22.7519Z" fill="#7D5046"/>
<path d="M17.3994 16.4769C17.2458 16.458 17.0941 16.4552 16.9456 16.4668L16.5643 19.5592C16.4727 20.3018 17.0005 20.9781 17.7431 21.0696C18.4858 21.1612 19.162 20.6334 19.2536 19.8908L19.3642 18.9944C19.5167 17.7566 18.6371 16.6295 17.3994 16.4769Z" fill="#9C6846"/>
<path d="M35.5372 24.7277C34.2995 24.5751 33.4198 23.448 33.5724 22.2103L33.7934 20.4174C33.946 19.1797 35.0731 18.3 36.3108 18.4526C37.5485 18.6052 38.4282 19.7323 38.2756 20.97L38.0545 22.7629C37.902 24.0007 36.7749 24.8804 35.5372 24.7277Z" fill="#7D5046"/>
<path d="M36.3107 18.4526C36.1572 18.4337 36.0055 18.431 35.8569 18.4426L35.4757 21.5349C35.3841 22.2776 35.9118 22.9538 36.6545 23.0454C37.3972 23.1369 38.0734 22.6092 38.165 21.8665L38.2755 20.9701C38.4281 19.7323 37.5485 18.6053 36.3107 18.4526Z" fill="#9C6846"/>
</g>
<defs>
<clipPath id="clip0">
<rect width="56" height="56" fill="white"/>
</clipPath>
</defs>
</svg>
