<svg width="88" height="88" viewBox="0 0 88 88" fill="none" xmlns="http://www.w3.org/2000/svg">
<path d="M66.9999 54.5H16.9999L0.333248 71.1667V4.50004C0.333248 3.39497 0.772235 2.33516 1.55364 1.55376C2.33504 0.772361 3.39485 0.333374 4.49991 0.333374H66.9999C68.105 0.333374 69.1648 0.772361 69.9462 1.55376C70.7276 2.33516 71.1666 3.39497 71.1666 4.50004V50.3334C71.1666 51.4384 70.7276 52.4982 69.9462 53.2796C69.1648 54.0611 68.105 54.5 66.9999 54.5ZM87.8332 29.5V87.8334L71.1666 71.1667H25.3332C24.2282 71.1667 23.1684 70.7277 22.387 69.9463C21.6056 69.1649 21.1666 68.1051 21.1666 67V62.8334H79.4999V25.3334H83.6666C84.7716 25.3334 85.8315 25.7724 86.6129 26.5538C87.3943 27.3352 87.8332 28.395 87.8332 29.5ZM26.1249 8.66671C22.4999 8.66671 19.5832 9.50004 17.3332 11.125C15.1666 12.8334 14.0832 15.2084 14.1249 18.5L14.1666 18.625H22.2082C22.2499 17.375 22.6249 16.4167 23.3749 15.75C24.1465 15.1102 25.1228 14.77 26.1249 14.7917C27.4166 14.7917 28.4999 15.2084 29.2499 15.9584C29.9999 16.75 30.3332 17.8334 30.3332 19.0834C30.3332 20.4167 30.0416 21.5417 29.3749 22.5C28.7916 23.4584 27.9166 24.2917 26.8332 24.9584C24.7082 26.375 23.2499 27.625 22.4582 28.75C21.6249 29.8334 21.1666 31.5834 21.1666 33.6667H29.4999C29.4999 32.375 29.6666 31.3334 30.0416 30.5834C30.4166 29.8334 31.1249 29.0834 32.1666 28.4167C34.0416 27.4167 35.5832 26.2084 36.7916 24.5417C37.9999 22.875 38.6249 21.1667 38.6249 19.0834C38.6249 15.9167 37.4999 13.375 35.2499 11.5C33.0416 9.62504 29.9999 8.66671 26.1249 8.66671ZM21.1666 37.8334V46.1667H29.4999V37.8334H21.1666ZM46.1666 46.1667H54.4999V37.8334H46.1666V46.1667ZM46.1666 8.66671V33.6667H54.4999V8.66671H46.1666Z" fill="#232946"/>
</svg>
