<svg width="40" height="38" viewBox="0 0 40 38" fill="none" xmlns="http://www.w3.org/2000/svg">
<g clip-path="url(#clip0)">
<path d="M40 25.6939C40 20.9826 37.1524 16.7779 32.8876 14.7326C32.7551 23.7659 25.0391 31.0896 15.5219 31.2153C17.6767 35.2633 22.1066 37.9661 27.0703 37.9661C29.3976 37.9661 31.6608 37.3778 33.6493 36.26L39.9435 37.9125L38.2025 31.9383C39.3802 30.0509 40 27.9028 40 25.6939Z" fill="#FEBE5F"/>
<path d="M30.5469 14.4968C30.5469 6.50312 23.6954 0 15.2734 0C6.8515 0 0 6.50312 0 14.4968C0 17.102 0.730591 19.6385 2.11792 21.8654L0.0561523 28.9401L7.51007 26.9834C9.85626 28.3002 12.5287 28.9936 15.2734 28.9936C23.6954 28.9936 30.5469 22.4905 30.5469 14.4968ZM12.9297 11.1229H10.5859C10.5859 8.66947 12.6886 6.67373 15.2734 6.67373C17.8583 6.67373 19.9609 8.66947 19.9609 11.1229C19.9609 12.3681 19.4055 13.565 18.4366 14.4062L16.4453 16.136V17.8708H14.1016V15.1564L16.8542 12.765C17.3462 12.3377 17.6172 11.7546 17.6172 11.1229C17.6172 9.89618 16.5659 8.8983 15.2734 8.8983C13.981 8.8983 12.9297 9.89618 12.9297 11.1229ZM14.1016 20.0953H16.4453V22.3199H14.1016V20.0953Z" fill="#FEBE5F"/>
</g>
<defs>
<clipPath id="clip0">
<rect width="40" height="37.9661" fill="white"/>
</clipPath>
</defs>
</svg>
