<svg width="56" height="56" viewBox="0 0 56 56" fill="none" xmlns="http://www.w3.org/2000/svg">
<path d="M28 56C43.464 56 56 43.464 56 28C56 12.536 43.464 0 28 0C12.536 0 0 12.536 0 28C0 43.464 12.536 56 28 56Z" fill="#FFE17D"/>
<path d="M-0.000106812 27.7962C-0.000106812 43.2663 12.5386 55.7962 27.9999 55.7962C36.8024 55.7962 44.6599 51.7363 49.7961 45.375C44.9924 49.26 38.8761 51.5788 32.2174 51.5788C16.7561 51.5788 4.21739 39.0488 4.21739 23.5788C4.21739 16.92 6.53614 10.8038 10.4211 6C4.06864 11.1363 -0.000106812 18.9937 -0.000106812 27.7962Z" fill="#FFD164"/>
<path d="M40.5295 37.6687C40.5295 38.5105 39.8488 39.1912 39.007 39.1912H16.9903C16.1573 39.1912 15.4678 38.5105 15.4678 37.6687C15.4678 36.827 16.1573 36.1462 16.9903 36.1462H39.007C39.8505 36.148 40.5295 36.827 40.5295 37.6687Z" fill="#AA7346"/>
<path d="M19.258 28.1746C18.011 28.1746 17 27.1636 17 25.9165V22.258C17 21.011 18.011 20 19.258 20C20.5051 20 21.5161 21.011 21.5161 22.258V25.9165C21.5161 27.1636 20.5051 28.1746 19.258 28.1746Z" fill="#7D5046"/>
<path d="M19.258 20C19.1033 20 18.9524 20.0159 18.8064 20.0455V25.0132C18.8064 25.7614 19.413 26.368 20.1612 26.368C20.9095 26.368 21.5161 25.7614 21.5161 25.0132V22.2579C21.5161 21.011 20.5052 20 19.258 20Z" fill="#9C6846"/>
<path d="M36.258 28.1746C35.011 28.1746 34 27.1636 34 25.9165V22.258C34 21.011 35.011 20 36.258 20C37.5051 20 38.5161 21.011 38.5161 22.258V25.9165C38.5161 27.1636 37.5051 28.1746 36.258 28.1746Z" fill="#7D5046"/>
<path d="M36.258 20C36.1033 20 35.9524 20.0159 35.8064 20.0455V25.0132C35.8064 25.7614 36.413 26.368 37.1612 26.368C37.9095 26.368 38.5161 25.7614 38.5161 25.0132V22.2579C38.5161 21.011 37.5052 20 36.258 20Z" fill="#9C6846"/>
</svg>
