<svg width="56" height="56" viewBox="0 0 56 56" fill="none" xmlns="http://www.w3.org/2000/svg">
<path d="M28 56C43.464 56 56 43.464 56 28C56 12.536 43.464 0 28 0C12.536 0 0 12.536 0 28C0 43.464 12.536 56 28 56Z" fill="#FFE17D"/>
<path d="M32.0645 51.9355C16.6005 51.9355 4.06448 39.3995 4.06448 23.9355C4.06448 17.2388 6.41834 11.0937 10.34 6.2755C4.03189 11.4096 0 19.2327 0 28C0 43.464 12.536 56 28 56C36.7674 56 44.5905 51.968 49.7247 45.6599C44.9064 49.5815 38.7613 51.9355 32.0645 51.9355Z" fill="#FFD164"/>
<path d="M28 33.3927C22.6053 33.3927 17.4557 32.7663 12.7314 31.6341C12.1195 31.4874 11.5921 32.1267 11.7809 32.793C13.9596 40.4847 20.3906 46.0646 28.0001 46.0646C35.6095 46.0646 42.0404 40.4847 44.2193 32.793C44.4081 32.1267 43.8807 31.4874 43.2687 31.6341C38.5443 32.7663 33.3947 33.3927 28 33.3927Z" fill="#9C6846"/>
<path d="M43.2686 31.6341C38.5443 32.7664 33.3948 33.3927 28 33.3927C22.6051 33.3927 17.4557 32.7665 12.7314 31.6341C12.1195 31.4874 11.5921 32.1267 11.7809 32.793C12.3511 34.8064 13.2189 36.6696 14.3168 38.3315C18.8056 39.1842 23.3722 39.6533 28.0019 39.6533C32.6301 39.6533 37.195 39.1845 41.6824 38.3324C42.7807 36.6704 43.6488 34.807 44.2192 32.7931C44.4079 32.1266 43.8806 31.4874 43.2686 31.6341Z" fill="#7D5046"/>
<path d="M18.5161 25.3358C17.269 25.3358 16.2581 24.3249 16.2581 23.0778V19.4193C16.2581 18.1722 17.269 17.1613 18.5161 17.1613C19.7632 17.1613 20.7741 18.1722 20.7741 19.4193V23.0778C20.7741 24.3249 19.7632 25.3358 18.5161 25.3358Z" fill="#7D5046"/>
<path d="M18.5161 17.1613C18.3614 17.1613 18.2105 17.1771 18.0645 17.2068V22.1745C18.0645 22.9227 18.671 23.5293 19.4193 23.5293C20.1675 23.5293 20.7741 22.9227 20.7741 22.1745V19.4192C20.7741 18.1722 19.7633 17.1613 18.5161 17.1613Z" fill="#9C6846"/>
<path d="M37.4839 25.3358C36.2368 25.3358 35.2258 24.3249 35.2258 23.0778V19.4193C35.2258 18.1722 36.2368 17.1613 37.4839 17.1613C38.731 17.1613 39.7419 18.1722 39.7419 19.4193V23.0778C39.7419 24.3249 38.731 25.3358 37.4839 25.3358Z" fill="#7D5046"/>
<path d="M37.4838 17.1613C37.3292 17.1613 37.1782 17.1771 37.0322 17.2068V22.1745C37.0322 22.9227 37.6388 23.5293 38.3871 23.5293C39.1353 23.5293 39.7419 22.9227 39.7419 22.1745V19.4192C39.7419 18.1722 38.7309 17.1613 37.4838 17.1613Z" fill="#9C6846"/>
<path d="M40.1458 34.7187C40.6341 33.8821 41.0426 32.9856 41.3851 32.0525C37.1869 32.9188 32.6863 33.3926 27.9999 33.3926C23.3107 33.3926 18.8076 32.9184 14.6072 32.0509C14.9515 32.9886 15.3667 33.8867 15.8582 34.7268C16.4264 35.698 17.3884 36.3193 18.4349 36.4466C21.5683 36.8278 24.7619 37.0322 27.9999 37.0322C31.2373 37.0322 34.4301 36.8279 37.5629 36.4468C38.6129 36.3192 39.5767 35.6939 40.1458 34.7187Z" fill="white"/>
</svg>
