<svg width="88" height="88" viewBox="0 0 88 88" fill="none" xmlns="http://www.w3.org/2000/svg">
<path d="M44 0.25C19.8398 0.25 0.25 19.8398 0.25 44C0.25 68.1602 19.8398 87.75 44 87.75C68.1602 87.75 87.75 68.1602 87.75 44C87.75 19.8398 68.1602 0.25 44 0.25ZM44 69.3906C41.8418 69.3906 40.0938 67.6426 40.0938 65.4844C40.0938 63.3262 41.8418 61.5781 44 61.5781C46.1582 61.5781 47.9062 63.3262 47.9062 65.4844C47.9062 67.6426 46.1582 69.3906 44 69.3906ZM50.1426 47.9551C49.2582 48.2966 48.4972 48.8967 47.9589 49.6771C47.4207 50.4575 47.1301 51.382 47.125 52.3301V54.5469C47.125 54.9766 46.7734 55.3281 46.3438 55.3281H41.6562C41.2266 55.3281 40.875 54.9766 40.875 54.5469V52.4473C40.875 50.1914 41.5293 47.9648 42.8184 46.1094C44.0781 44.293 45.8359 42.9062 47.9062 42.1152C51.2266 40.8359 53.375 38.0527 53.375 35.0156C53.375 30.709 49.166 27.2031 44 27.2031C38.834 27.2031 34.625 30.709 34.625 35.0156V35.7578C34.625 36.1875 34.2734 36.5391 33.8438 36.5391H29.1562C28.7266 36.5391 28.375 36.1875 28.375 35.7578V35.0156C28.375 31.1777 30.0547 27.5938 33.1016 24.9277C36.0312 22.3594 39.8984 20.9531 44 20.9531C48.1016 20.9531 51.9687 22.3691 54.8984 24.9277C57.9453 27.5938 59.625 31.1777 59.625 35.0156C59.625 40.6602 55.9043 45.7383 50.1426 47.9551Z" fill="#232946"/>
</svg>
