<svg width="100" height="100" viewBox="0 0 100 100" fill="none" xmlns="http://www.w3.org/2000/svg">
<path d="M50 0C56.7708 0 63.2412 1.32212 69.4111 3.96635C75.5809 6.61058 80.8994 10.1663 85.3666 14.6334C89.8337 19.1006 93.3894 24.4191 96.0337 30.5889C98.6779 36.7588 100 43.2292 100 50C100 56.7708 98.6779 63.2512 96.0337 69.4411C93.3894 75.631 89.8337 80.9495 85.3666 85.3966C80.8994 89.8437 75.5809 93.3894 69.4111 96.0337C63.2412 98.6779 56.7708 100 50 100C43.2292 100 36.7588 98.6779 30.5889 96.0337C24.4191 93.3894 19.1006 89.8437 14.6334 85.3966C10.1663 80.9495 6.61058 75.631 3.96635 69.4411C1.32212 63.2512 0 56.7708 0 50C0 43.2292 1.32212 36.7588 3.96635 30.5889C6.61058 24.4191 10.1663 19.1006 14.6334 14.6334C19.1006 10.1663 24.4191 6.61058 30.5889 3.96635C36.7588 1.32212 43.2292 0 50 0ZM23.0769 38.4615C23.0769 40.5849 23.8281 42.3978 25.3305 43.9002C26.8329 45.4026 28.6458 46.1538 30.7692 46.1538C32.8926 46.1538 34.7055 45.4026 36.2079 43.9002C37.7103 42.3978 38.4615 40.5849 38.4615 38.4615C38.4615 36.3381 37.7103 34.5252 36.2079 33.0228C34.7055 31.5204 32.8926 30.7692 30.7692 30.7692C28.6458 30.7692 26.8329 31.5204 25.3305 33.0228C23.8281 34.5252 23.0769 36.3381 23.0769 38.4615ZM50 80.7692C55.4888 80.7692 60.3666 78.9764 64.6334 75.3906C68.9002 71.8049 71.7147 67.2075 73.0769 61.5986H26.9231C28.2853 67.2476 31.0897 71.855 35.3365 75.4207C39.5833 78.9864 44.4712 80.7692 50 80.7692ZM69.2308 46.1538C71.3542 46.1538 73.1671 45.4026 74.6695 43.9002C76.1719 42.3978 76.9231 40.5849 76.9231 38.4615C76.9231 36.3381 76.1719 34.5252 74.6695 33.0228C73.1671 31.5204 71.3542 30.7692 69.2308 30.7692C67.1074 30.7692 65.2945 31.5204 63.7921 33.0228C62.2897 34.5252 61.5385 36.3381 61.5385 38.4615C61.5385 40.5849 62.2897 42.3978 63.7921 43.9002C65.2945 45.4026 67.1074 46.1538 69.2308 46.1538Z" fill="#232946"/>
</svg>
