<svg xmlns="http://www.w3.org/2000/svg" viewBox="0 0 512 512" width="512" height="512">
	<style>
		tspan { white-space:pre }
		.shp0 { fill: #ffffff } 
	</style>
	<g id="Layer">
		<g id="Layer">
			<path id="Layer" class="shp0" d="M255.15 468.63L63.79 468.63C52.05 468.63 42.52 459.1 42.52 447.36L42.52 64.64C42.52 52.9 52.05 43.38 63.79 43.38L255.15 43.38C266.91 43.38 276.41 33.87 276.41 22.11C276.41 10.36 266.91 0.85 255.15 0.85L63.79 0.85C28.62 0.85 0 29.47 0 64.64L0 447.36C0 482.53 28.62 511.15 63.79 511.15L255.15 511.15C266.91 511.15 276.41 501.64 276.41 489.89C276.41 478.13 266.91 468.63 255.15 468.63Z" />
		</g>
	</g>
	<g id="Layer">
		<g id="Layer">
			<path id="Layer" class="shp0" d="M505.66 240.86L376.39 113.29C368.05 105.04 354.57 105.14 346.32 113.5C338.07 121.85 338.16 135.31 346.54 143.56L438.92 234.74L191.36 234.74C179.6 234.74 170.1 244.24 170.1 256C170.1 267.76 179.6 277.26 191.36 277.26L438.92 277.26L346.54 368.44C338.16 376.69 338.1 390.14 346.32 398.5C350.49 402.71 355.98 404.84 361.46 404.84C366.86 404.84 372.26 402.8 376.39 398.71L505.66 271.14C509.7 267.14 512 261.7 512 256C512 250.3 509.73 244.88 505.66 240.86Z" />
		</g>
	</g>
	<g id="Layer">
	</g>
	<g id="Layer">
	</g>
	<g id="Layer">
	</g>
	<g id="Layer">
	</g>
	<g id="Layer">
	</g>
	<g id="Layer">
	</g>
	<g id="Layer">
	</g>
	<g id="Layer">
	</g>
	<g id="Layer">
	</g>
	<g id="Layer">
	</g>
	<g id="Layer">
	</g>
	<g id="Layer">
	</g>
	<g id="Layer">
	</g>
	<g id="Layer">
	</g>
	<g id="Layer">
	</g>
</svg>