<svg width="498" height="89" viewBox="0 0 498 89" fill="none" xmlns="http://www.w3.org/2000/svg">
<rect x="1" y="1" width="496" height="87" rx="10" fill="white" stroke="black" stroke-width="2"/>
<path d="M159.988 53.24C158.932 53.24 157.94 53.16 157.012 53C156.084 52.824 155.3 52.584 154.66 52.28V48.56C155.396 48.896 156.204 49.168 157.084 49.376C157.964 49.584 158.78 49.688 159.532 49.688C160.396 49.688 161.012 49.616 161.38 49.472C161.764 49.312 161.956 49.008 161.956 48.56C161.956 48.272 161.86 48.04 161.668 47.864C161.492 47.672 161.228 47.512 160.876 47.384C160.524 47.24 159.964 47.048 159.196 46.808C158.94 46.744 158.748 46.688 158.62 46.64C157.564 46.304 156.732 45.936 156.124 45.536C155.532 45.136 155.1 44.656 154.828 44.096C154.572 43.52 154.444 42.808 154.444 41.96C154.444 40.44 154.988 39.288 156.076 38.504C157.164 37.704 158.764 37.304 160.876 37.304C161.692 37.304 162.548 37.376 163.444 37.52C164.356 37.648 165.108 37.808 165.7 38V41.744C164.292 41.184 162.924 40.904 161.596 40.904C160.748 40.904 160.108 40.968 159.676 41.096C159.26 41.224 159.052 41.504 159.052 41.936C159.052 42.208 159.14 42.424 159.316 42.584C159.492 42.744 159.756 42.888 160.108 43.016C160.476 43.128 161.092 43.296 161.956 43.52C163.188 43.856 164.132 44.264 164.788 44.744C165.46 45.208 165.924 45.744 166.18 46.352C166.436 46.96 166.564 47.696 166.564 48.56C166.564 50 166.004 51.144 164.884 51.992C163.78 52.824 162.148 53.24 159.988 53.24ZM168.236 37.544H172.748V53H168.236V37.544ZM182.884 53.24C180.148 53.24 178.052 52.568 176.596 51.224C175.156 49.88 174.436 47.944 174.436 45.416C174.436 42.808 175.18 40.808 176.668 39.416C178.172 38.008 180.348 37.304 183.196 37.304C185.036 37.304 186.636 37.528 187.996 37.976V41.84C186.748 41.376 185.252 41.144 183.508 41.144C182.004 41.144 180.884 41.488 180.148 42.176C179.412 42.848 179.044 43.928 179.044 45.416C179.044 46.792 179.356 47.8 179.98 48.44C180.62 49.08 181.588 49.4 182.884 49.4C183.652 49.4 184.388 49.296 185.092 49.088V46.832H182.02V44.048H188.86V51.824C188.204 52.24 187.372 52.584 186.364 52.856C185.372 53.112 184.212 53.24 182.884 53.24ZM190.549 37.544H194.389L200.221 45.728V37.544H204.733V53H200.869L195.061 44.84V53H190.549V37.544ZM215.041 37.544H219.553V53H215.041V37.544ZM221.721 37.544H225.561L231.393 45.728V37.544H235.905V53H232.041L226.233 44.84V53H221.721V37.544ZM245.733 37.544H250.149L251.901 45.728L253.605 39.872V37.544H257.301L259.653 45.752L261.501 37.544H265.917L262.341 53H258.261L255.933 45.008L253.413 53H249.333L245.733 37.544ZM267.588 37.544H272.1V53H267.588V37.544ZM277.652 40.904H273.308V37.544H286.508V40.904H282.164V53H277.652V40.904ZM287.697 37.544H292.209V43.304H297.537V37.544H302.049V53H297.537V47.24H292.209V53H287.697V37.544ZM320.345 53.24C317.609 53.24 315.513 52.568 314.057 51.224C312.617 49.88 311.897 47.944 311.897 45.416C311.897 42.808 312.641 40.808 314.129 39.416C315.633 38.008 317.809 37.304 320.657 37.304C322.497 37.304 324.097 37.528 325.457 37.976V41.84C324.209 41.376 322.713 41.144 320.969 41.144C319.465 41.144 318.345 41.488 317.609 42.176C316.873 42.848 316.505 43.928 316.505 45.416C316.505 46.792 316.817 47.8 317.441 48.44C318.081 49.08 319.049 49.4 320.345 49.4C321.113 49.4 321.849 49.296 322.553 49.088V46.832H319.481V44.048H326.321V51.824C325.665 52.24 324.833 52.584 323.825 52.856C322.833 53.112 321.673 53.24 320.345 53.24ZM335.426 53.24C332.818 53.24 330.85 52.608 329.522 51.344C328.194 50.064 327.53 48.056 327.53 45.32C327.53 42.504 328.186 40.464 329.498 39.2C330.826 37.936 332.802 37.304 335.426 37.304C338.05 37.304 340.018 37.944 341.33 39.224C342.658 40.488 343.322 42.52 343.322 45.32C343.322 48.04 342.658 50.04 341.33 51.32C340.002 52.6 338.034 53.24 335.426 53.24ZM335.426 49.4C336.578 49.4 337.41 49.08 337.922 48.44C338.45 47.784 338.714 46.744 338.714 45.32C338.714 43.816 338.458 42.744 337.946 42.104C337.434 41.464 336.594 41.144 335.426 41.144C334.258 41.144 333.418 41.464 332.906 42.104C332.394 42.744 332.138 43.816 332.138 45.32C332.138 46.744 332.394 47.784 332.906 48.44C333.434 49.08 334.274 49.4 335.426 49.4ZM351.809 53.24C349.201 53.24 347.233 52.608 345.905 51.344C344.577 50.064 343.913 48.056 343.913 45.32C343.913 42.504 344.569 40.464 345.881 39.2C347.209 37.936 349.185 37.304 351.809 37.304C354.433 37.304 356.401 37.944 357.713 39.224C359.041 40.488 359.705 42.52 359.705 45.32C359.705 48.04 359.041 50.04 357.713 51.32C356.385 52.6 354.417 53.24 351.809 53.24ZM351.809 49.4C352.961 49.4 353.793 49.08 354.305 48.44C354.833 47.784 355.097 46.744 355.097 45.32C355.097 43.816 354.841 42.744 354.329 42.104C353.817 41.464 352.977 41.144 351.809 41.144C350.641 41.144 349.801 41.464 349.289 42.104C348.777 42.744 348.521 43.816 348.521 45.32C348.521 46.744 348.777 47.784 349.289 48.44C349.817 49.08 350.657 49.4 351.809 49.4ZM368.743 53.24C366.007 53.24 363.911 52.568 362.455 51.224C361.015 49.88 360.295 47.944 360.295 45.416C360.295 42.808 361.039 40.808 362.527 39.416C364.031 38.008 366.207 37.304 369.055 37.304C370.895 37.304 372.495 37.528 373.855 37.976V41.84C372.607 41.376 371.111 41.144 369.367 41.144C367.863 41.144 366.743 41.488 366.007 42.176C365.271 42.848 364.903 43.928 364.903 45.416C364.903 46.792 365.215 47.8 365.839 48.44C366.479 49.08 367.447 49.4 368.743 49.4C369.511 49.4 370.247 49.296 370.951 49.088V46.832H367.879V44.048H374.719V51.824C374.063 52.24 373.231 52.584 372.223 52.856C371.231 53.112 370.071 53.24 368.743 53.24ZM376.408 37.544H380.92V49.544H387.88V53H376.408V37.544ZM389.088 37.544H400.8V41H393.6V43.52H399.912V47.024H393.6V49.544H400.8V53H389.088V37.544Z" fill="black"/>
<g clip-path="url(#clip0)">
<path d="M119.205 47.9207L118.231 51.5592L114.668 51.6346C113.604 49.66 113 47.4008 113 45C113 42.6785 113.565 40.4892 114.565 38.5615H114.566L117.738 39.143L119.127 42.2954C118.836 43.1431 118.678 44.0531 118.678 45C118.678 46.0277 118.864 47.0123 119.205 47.9207Z" fill="#FBBB00"/>
<path d="M140.755 42.3846C140.916 43.2315 141 44.1061 141 45C141 46.0023 140.895 46.98 140.694 47.9231C140.012 51.1323 138.232 53.9346 135.765 55.9177L135.764 55.9169L131.769 55.7131L131.204 52.1839C132.841 51.2239 134.12 49.7216 134.794 47.9231H127.308V42.3846H134.903H140.755Z" fill="#518EF8"/>
<path d="M135.764 55.9169L135.765 55.9177C133.365 57.8461 130.318 59 127 59C121.668 59 117.033 56.02 114.668 51.6346L119.205 47.9208C120.388 51.0762 123.431 53.3223 127 53.3223C128.534 53.3223 129.971 52.9077 131.204 52.1838L135.764 55.9169Z" fill="#28B446"/>
<path d="M135.936 34.2231L131.401 37.9361C130.125 37.1385 128.616 36.6777 127 36.6777C123.351 36.6777 120.25 39.0269 119.127 42.2954L114.566 38.5615H114.565C116.895 34.0692 121.589 31 127 31C130.397 31 133.512 32.21 135.936 34.2231Z" fill="#F14336"/>
</g>
<defs>
<clipPath id="clip0">
<rect x="113" y="31" width="28" height="28" fill="white"/>
</clipPath>
</defs>
</svg>
